Coordinates
version=1
nRows=8
nColumns=63
inDegrees=yes

Units are S.I. units (second, meters, Newtons, ...)
If the header above contains a line with 'inDegrees', this indicates whether rotational values are in degrees (yes) or radians (no).

endheader
time	pelvis_tilt	pelvis_list	pelvis_rotation	pelvis_tx	pelvis_ty	pelvis_tz	hip_flexion_r	hip_adduction_r	hip_rotation_r	knee_angle_r	knee_angle_r_beta	ankle_angle_r	subtalar_angle_r	mtp_angle_r	hip_flexion_l	hip_adduction_l	hip_rotation_l	knee_angle_l	knee_angle_l_beta	ankle_angle_l	subtalar_angle_l	mtp_angle_l	L5_S1_Flex_Ext	L5_S1_Lat_Bending	L5_S1_axial_rotation	L4_L5_Flex_Ext	L4_L5_Lat_Bending	L4_L5_axial_rotation	L3_L4_Flex_Ext	L3_L4_Lat_Bending	L3_L4_axial_rotation	L2_L3_Flex_Ext	L2_L3_Lat_Bending	L2_L3_axial_rotation	L1_L2_Flex_Ext	L1_L2_Lat_Bending	L1_L2_axial_rotation	L1_T12_Flex_Ext	L1_T12_Lat_Bending	L1_T12_axial_rotation	Abs_r3	Abs_r2	Abs_r1	Abs_t1	Abs_t2	neck_flexion	neck_bending	neck_rotation	arm_flex_r	arm_add_r	arm_rot_r	elbow_flex_r	pro_sup_r	wrist_flex_r	wrist_dev_r	arm_flex_l	arm_add_l	arm_rot_l	elbow_flex_l	pro_sup_l	wrist_flex_l	wrist_dev_l
      1.30000000	      2.86942889	     -9.67787169	     19.34567538	     -2.03613680	      0.92005045	      0.33181148	     14.82919199	      6.73983999	    -21.25046561	     20.36167786	      0.35537832	      9.43996563	    -16.54451764	      0.00000000	      8.18137840	     -9.90632248	     17.54819881	     61.04817463	      1.06549165	     -1.11887675	    -17.75820736	      0.00000000	      0.00916242	      0.96654138	     -2.61057295	      0.01701553	      1.28550004	     -2.77373376	      0.01505294	      2.35004872	     -2.77373376	      0.01047173	      2.35004872	     -2.28425133	      0.00850823	      1.97097119	     -2.12109052	      0.00523541	      1.49717260	     -1.95792971	      0.06544626	     10.93370943	    -14.51922359	      0.00000000	      0.00000000	      0.00000000	      0.00000000	      0.00000000	     -0.15646864	    -20.03189911	     75.05443572	     17.34022941	     59.77459566	      0.00000000	      4.99879271	     -3.43829779	    -12.23565263	     33.69718759	     30.77222219	     51.28431251	      0.00000000	      4.99879271
      1.33333333	      2.75237265	     -8.88916185	     15.33964381	     -2.00613097	      0.92607503	      0.34194647	     11.35078057	      8.30431678	    -15.76589817	     17.71684895	      0.30921735	      9.47228623	    -16.32408023	      0.00000000	     11.92358639	     -8.40593816	     13.95096613	     66.53399541	      1.16123728	     -4.82751859	    -18.94262828	      0.00000000	      0.00832560	      0.89370803	     -1.80817260	      0.01546147	      1.18863168	     -1.92118339	      0.01367813	      2.17296170	     -1.92118339	      0.00951533	      2.17296170	     -1.58215102	      0.00773115	      1.82244941	     -1.46914024	      0.00475725	      1.38435374	     -1.35612945	      0.05946891	     10.10980397	    -10.05651355	      0.00000000	      0.00000000	      0.00000000	      0.00000000	      0.00000000	      1.96440281	    -20.14454652	     74.36317626	     17.59063574	     59.26443338	      0.00000000	      4.99885682	     -3.99596537	    -13.07259025	     34.58219230	     31.26152766	     51.35792732	      0.00000000	      4.99885682
      1.36666667	      2.39421736	     -8.00266632	     10.47130988	     -1.97780432	      0.93161534	      0.35233742	      8.03769424	      9.11048959	     -9.47251619	     15.25956029	      0.26632957	      9.12514169	    -16.12453358	      0.00000000	     16.05639558	     -7.35509371	      9.27346726	     70.29936671	      1.22695541	     -4.89676779	    -19.28155600	      0.00000000	      0.00437229	      0.80969391	     -0.87191120	      0.00811978	      1.07689291	     -0.92640565	      0.00718324	      1.96868978	     -0.92640565	      0.00499709	      1.96868978	     -0.76292230	      0.00406011	      1.65112783	     -0.70842785	      0.00249833	      1.25421587	     -0.65393340	      0.03123083	      9.15941949	     -4.84930852	      0.00000000	      0.00000000	      0.00000000	      0.00000000	      0.00000000	      2.74711041	    -20.07711036	     62.89308103	     18.32912673	     51.49247555	      0.00000000	      4.99938213	     -3.94333564	    -13.57963241	     36.70698878	     30.48547783	     51.70996185	      0.00000000	      4.99938213
      1.40000000	      2.01903857	     -7.01222027	      5.34642036	     -1.95046245	      0.93660139	      0.36225842	      4.57625262	      8.96179660	     -4.47836950	     12.58765568	      0.21969604	      9.31596821	    -13.43326859	      0.00000000	     20.21103352	     -6.90668393	      4.18959896	     71.91887773	      1.25522121	     -2.05974726	    -19.35386590	      0.00000000	     -0.00061394	      0.70697128	      0.03579753	     -0.00114014	      0.94027180	      0.03803487	     -0.00100863	      1.71892996	      0.03803487	     -0.00070167	      1.71892996	      0.03132284	     -0.00057010	      1.44165583	      0.02908549	     -0.00035080	      1.09509851	      0.02684814	     -0.00438528	      7.99740047	      0.19909510	      0.00000000	      0.00000000	      0.00000000	      0.00000000	      0.00000000	      5.54223953	    -20.09884122	     61.83336567	     18.52924196	     51.04058865	      0.00000000	      4.99939674	     -4.01544567	    -13.35085034	     37.20330297	     28.39264681	     51.87106346	      0.00000000	      4.99939674
      1.43333333	      1.57669118	     -5.75924982	     -0.12841288	     -1.92398737	      0.94011608	      0.37224749	      1.74125848	      8.09231449	      2.11923255	     10.74944136	      0.18761314	      9.22580065	    -13.20729145	      0.00000000	     24.09320413	     -7.11199780	     -1.34532223	     71.00571467	      1.23928351	      2.31374673	    -19.24150934	      0.00000000	     -0.00527733	      0.56596504	      1.04948682	     -0.00980054	      0.75273350	      1.11507974	     -0.00867013	      1.37608740	      1.11507974	     -0.00603147	      1.37608740	      0.91830096	     -0.00490053	      1.15411591	      0.85270804	     -0.00301547	      0.87667985	      0.78711511	     -0.03769547	      6.40230973	      5.83693083	      0.00000000	      0.00000000	      0.00000000	      0.00000000	      0.00000000	      5.73019475	    -19.38211999	     45.13862875	     20.62020648	     42.39843093	      0.00000000	      4.99960350	     -2.70242745	    -13.81456953	     44.79976198	     25.61664171	     54.71021439	      0.00000000	      4.99960350
      1.46666667	      1.25790598	     -4.45844424	     -4.75680050	     -1.89771799	      0.94204965	      0.38065003	     -1.16224708	      6.57184998	      5.56643937	      8.44187317	      0.14733848	      9.65831287	    -10.16599782	      0.00000000	     27.43818281	     -7.65394944	     -5.99106325	     67.44193097	      1.17708375	      6.53572238	    -18.95231143	      0.00000000	     -0.01067347	      0.40971473	      1.85822145	     -0.01982170	      0.54492059	      1.97436029	     -0.01753545	      0.99618039	      1.97436029	     -0.01219871	      0.99618039	      1.62594377	     -0.00991138	      0.83549027	      1.50980493	     -0.00609882	      0.63464811	      1.39366609	     -0.07623953	      4.63477492	     10.33487026	      0.00000000	      0.00000000	      0.00000000	      0.00000000	      0.00000000	      7.44997602	    -18.73496345	     37.78191351	     22.23568802	     38.65459574	      0.00000000	      4.99970080	     -2.21864193	    -14.01006463	     49.02797248	     23.64769082	     56.54111996	      0.00000000	      4.99970080
      1.50000000	      0.97052400	     -3.14163758	     -8.54075791	     -1.87165104	      0.94181590	      0.38770117	     -3.68240622	      4.85579118	      7.27947479	      6.41380414	      0.11194200	     10.20931015	     -6.74962117	      0.00000000	     30.15573090	     -8.36656234	     -9.78919654	     61.45935808	      1.07266815	      9.40312302	    -18.33359596	      0.00000000	     -0.01686412	      0.24399752	      2.50546913	     -0.03131836	      0.32451670	      2.66206095	     -0.02770606	      0.59325556	      2.66206095	     -0.01927400	      0.59325556	      2.19228549	     -0.01566002	      0.49755973	      2.03569367	     -0.00963616	      0.37795215	      1.87910185	     -0.12045872	      2.76014869	     13.93466767	      0.00000000	      0.00000000	      0.00000000	      0.00000000	      0.00000000	      9.38166563	    -18.01450234	     32.58979297	     23.97961871	     35.71903022	      0.00000000	      4.99976662	     -1.89133199	    -14.47867788	     52.79351880	     22.57492125	     58.11689937	      0.00000000	      4.99976662
      1.53333333	      0.65008690	     -1.88994960	    -11.43097212	     -1.84561519	      0.93923305	      0.39336139	     -5.69007745	      3.24702130	      7.94476779	      5.03543269	      0.08788488	     11.12361588	     -3.60966070	      0.00000000	     32.14909938	     -9.04900782	    -12.81620543	     53.43282426	      0.93257871	     10.28576884	    -17.37510258	      0.00000000	     -0.02267907	      0.08159560	      2.98377287	     -0.04211729	      0.10852215	      3.17025867	     -0.03725944	      0.19839154	      3.17025867	     -0.02591990	      0.19839154	      2.61080126	     -0.02105978	      0.16638975	      2.42431545	     -0.01295882	      0.12639159	      2.23782965	     -0.16199429	      0.92302576	     16.59484956	      0.00000000	      0.00000000	      0.00000000	      0.00000000	      0.00000000	     11.37483684	    -17.27147852	     29.08952424	     25.73460947	     32.92875474	      0.00000000	      4.99982541	     -1.34175844	    -15.14824910	     57.23714663	     21.91470065	     59.89677698	      0.00000000	      4.99982541
